<?xml version="1.0" encoding="UTF-8" standalone="no"?>
<!DOCTYPE svg PUBLIC "-//W3C//DTD SVG 1.1//EN" "http://www.w3.org/Graphics/SVG/1.1/DTD/svg11.dtd">
<svg width="100%" height="100%" viewBox="0 0 128 128" version="1.1" xmlns="http://www.w3.org/2000/svg" xmlns:xlink="http://www.w3.org/1999/xlink" xml:space="preserve" xmlns:serif="http://www.serif.com/" style="fill-rule:evenodd;clip-rule:evenodd;stroke-linejoin:round;stroke-miterlimit:2;">
    <g transform="matrix(2.359081,2.359081,-1.565549,1.565549,61.23268,10.281475)">
        <path d="M15.354,28.198L15.354,47.485C15.354,48.892 14.596,50.033 13.663,50.033L10.281,50.033C9.348,50.033 8.59,48.892 8.59,47.485L8.59,28.198C8.59,26.792 9.348,25.65 10.281,25.65L13.663,25.65C14.596,25.65 15.354,26.792 15.354,28.198Z" style="fill:rgb(141,165,243);"/>
    </g>
    <g transform="matrix(1.855572,1.855572,-2.062991,2.062991,78.980653,7.331698)">
        <path d="M16.604,40.555L16.604,42.175C16.604,42.622 16.201,42.986 15.703,42.986L6.763,42.986C6.266,42.986 5.862,42.622 5.862,42.175L5.862,40.555C5.862,40.107 6.266,39.744 6.763,39.744L15.703,39.744C16.201,39.744 16.604,40.107 16.604,40.555Z" style="fill:rgb(141,165,243);"/>
    </g>
    <g transform="matrix(2.359081,2.359081,-2.359081,2.359081,119.046135,-44.045735)">
        <path d="M16.604,40.555L16.604,42.175C16.604,42.622 16.241,42.986 15.794,42.986L6.672,42.986C6.225,42.986 5.862,42.622 5.862,42.175L5.862,40.555C5.862,40.107 6.225,39.744 6.672,39.744L15.794,39.744C16.241,39.744 16.604,40.107 16.604,40.555Z" style="fill:rgb(141,165,243);"/>
    </g>
    <g transform="matrix(2.547937,2.547937,-2.547937,2.547937,44.405434,-81.043454)">
        <path d="M28.717,30.379L28.717,3.938L32.099,0.641L32.099,30.379L28.717,30.379Z" style="fill:rgb(141,165,243);"/>
    </g>
    <g transform="matrix(-2.547937,-2.547937,-2.547937,2.547937,209.043454,83.594566)">
        <path d="M28.717,30.379L28.717,3.938L32.099,0.641L32.099,30.379L28.717,30.379Z" style="fill:rgb(141,165,243);"/>
    </g>
</svg>
